<mxfile host="app.diagrams.net" modified="2023-08-16T03:43:23.622Z" agent="Mozilla/5.0 (Macintosh; Intel Mac OS X 10_15_7) AppleWebKit/537.36 (KHTML, like Gecko) Chrome/115.0.0.0 Safari/537.36" etag="RzltJk1W_JGOT3M-XV8X" version="21.6.8" type="github">
  <diagram name="第 1 页" id="QTemZmmR89aHGnhWT2Kw">
    <mxGraphModel dx="714" dy="679" grid="1" gridSize="10" guides="1" tooltips="1" connect="1" arrows="1" fold="1" page="1" pageScale="1" pageWidth="827" pageHeight="1169" math="0" shadow="0">
      <root>
        <mxCell id="0" />
        <mxCell id="1" parent="0" />
        <mxCell id="mjt6K8p7tiF1PK57Ym-b-9" value="" style="group" vertex="1" connectable="0" parent="1">
          <mxGeometry x="150" y="80" width="530" height="370" as="geometry" />
        </mxCell>
        <mxCell id="mjt6K8p7tiF1PK57Ym-b-2" value="用户管理" style="ellipse;whiteSpace=wrap;html=1;" vertex="1" parent="mjt6K8p7tiF1PK57Ym-b-9">
          <mxGeometry x="90" y="110" width="140" height="70" as="geometry" />
        </mxCell>
        <mxCell id="mjt6K8p7tiF1PK57Ym-b-3" value="修改用户密码" style="ellipse;whiteSpace=wrap;html=1;" vertex="1" parent="mjt6K8p7tiF1PK57Ym-b-9">
          <mxGeometry x="230" y="230" width="140" height="70" as="geometry" />
        </mxCell>
        <mxCell id="mjt6K8p7tiF1PK57Ym-b-4" value="创建用户" style="ellipse;whiteSpace=wrap;html=1;" vertex="1" parent="mjt6K8p7tiF1PK57Ym-b-9">
          <mxGeometry x="320" y="160" width="140" height="70" as="geometry" />
        </mxCell>
        <mxCell id="mjt6K8p7tiF1PK57Ym-b-5" value="用户登录" style="ellipse;whiteSpace=wrap;html=1;" vertex="1" parent="mjt6K8p7tiF1PK57Ym-b-9">
          <mxGeometry x="390" y="70" width="140" height="70" as="geometry" />
        </mxCell>
        <mxCell id="mjt6K8p7tiF1PK57Ym-b-6" value="用户登出" style="ellipse;whiteSpace=wrap;html=1;" vertex="1" parent="mjt6K8p7tiF1PK57Ym-b-9">
          <mxGeometry x="260" y="10" width="140" height="70" as="geometry" />
        </mxCell>
        <mxCell id="mjt6K8p7tiF1PK57Ym-b-7" value="修改用户属性" style="ellipse;whiteSpace=wrap;html=1;" vertex="1" parent="mjt6K8p7tiF1PK57Ym-b-9">
          <mxGeometry x="90" y="260" width="140" height="70" as="geometry" />
        </mxCell>
        <mxCell id="mjt6K8p7tiF1PK57Ym-b-8" value="创建用户" style="ellipse;whiteSpace=wrap;html=1;" vertex="1" parent="mjt6K8p7tiF1PK57Ym-b-9">
          <mxGeometry x="120" y="-30" width="140" height="70" as="geometry" />
        </mxCell>
        <mxCell id="mjt6K8p7tiF1PK57Ym-b-10" value="" style="endArrow=open;endFill=1;endSize=12;html=1;rounded=0;entryX=0;entryY=0.5;entryDx=0;entryDy=0;" edge="1" parent="mjt6K8p7tiF1PK57Ym-b-9" target="mjt6K8p7tiF1PK57Ym-b-2">
          <mxGeometry width="160" relative="1" as="geometry">
            <mxPoint x="10" y="144.5" as="sourcePoint" />
            <mxPoint x="170" y="144.5" as="targetPoint" />
          </mxGeometry>
        </mxCell>
        <mxCell id="mjt6K8p7tiF1PK57Ym-b-13" value="&amp;lt;&amp;lt;include&amp;gt;&amp;gt;" style="html=1;verticalAlign=bottom;endArrow=open;dashed=1;endSize=8;elbow=vertical;rounded=0;entryX=0.5;entryY=1;entryDx=0;entryDy=0;exitX=0.5;exitY=0;exitDx=0;exitDy=0;" edge="1" parent="mjt6K8p7tiF1PK57Ym-b-9" source="mjt6K8p7tiF1PK57Ym-b-2" target="mjt6K8p7tiF1PK57Ym-b-8">
          <mxGeometry relative="1" as="geometry">
            <mxPoint x="350" y="270" as="sourcePoint" />
            <mxPoint x="270" y="270" as="targetPoint" />
          </mxGeometry>
        </mxCell>
        <mxCell id="mjt6K8p7tiF1PK57Ym-b-14" value="&amp;lt;&amp;lt;include&amp;gt;&amp;gt;" style="html=1;verticalAlign=bottom;endArrow=open;dashed=1;endSize=8;elbow=vertical;rounded=0;exitX=0.95;exitY=0.214;exitDx=0;exitDy=0;exitPerimeter=0;" edge="1" parent="mjt6K8p7tiF1PK57Ym-b-9" source="mjt6K8p7tiF1PK57Ym-b-2">
          <mxGeometry relative="1" as="geometry">
            <mxPoint x="220" y="130" as="sourcePoint" />
            <mxPoint x="280" y="70" as="targetPoint" />
          </mxGeometry>
        </mxCell>
        <mxCell id="mjt6K8p7tiF1PK57Ym-b-15" value="&amp;lt;&amp;lt;include&amp;gt;&amp;gt;" style="html=1;verticalAlign=bottom;endArrow=open;dashed=1;endSize=8;elbow=vertical;rounded=0;entryX=0.029;entryY=0.329;entryDx=0;entryDy=0;exitX=1.007;exitY=0.657;exitDx=0;exitDy=0;exitPerimeter=0;entryPerimeter=0;" edge="1" parent="mjt6K8p7tiF1PK57Ym-b-9" source="mjt6K8p7tiF1PK57Ym-b-2" target="mjt6K8p7tiF1PK57Ym-b-4">
          <mxGeometry x="0.0013" relative="1" as="geometry">
            <mxPoint x="240" y="150" as="sourcePoint" />
            <mxPoint x="400" y="115" as="targetPoint" />
            <mxPoint as="offset" />
          </mxGeometry>
        </mxCell>
        <mxCell id="mjt6K8p7tiF1PK57Ym-b-17" value="&amp;lt;&amp;lt;include&amp;gt;&amp;gt;" style="html=1;verticalAlign=bottom;endArrow=open;dashed=1;endSize=8;elbow=vertical;rounded=0;entryX=0.5;entryY=0;entryDx=0;entryDy=0;exitX=0.443;exitY=0.986;exitDx=0;exitDy=0;exitPerimeter=0;" edge="1" parent="mjt6K8p7tiF1PK57Ym-b-9" source="mjt6K8p7tiF1PK57Ym-b-2" target="mjt6K8p7tiF1PK57Ym-b-7">
          <mxGeometry x="0.0013" relative="1" as="geometry">
            <mxPoint x="260" y="170" as="sourcePoint" />
            <mxPoint x="420" y="135" as="targetPoint" />
            <mxPoint as="offset" />
          </mxGeometry>
        </mxCell>
        <mxCell id="mjt6K8p7tiF1PK57Ym-b-1" value="用户" style="shape=umlActor;verticalLabelPosition=bottom;verticalAlign=top;html=1;" vertex="1" parent="1">
          <mxGeometry x="130" y="180" width="30" height="60" as="geometry" />
        </mxCell>
        <mxCell id="mjt6K8p7tiF1PK57Ym-b-11" value="&amp;lt;&amp;lt;include&amp;gt;&amp;gt;" style="html=1;verticalAlign=bottom;endArrow=open;dashed=1;endSize=8;elbow=vertical;rounded=0;entryX=0;entryY=0.5;entryDx=0;entryDy=0;" edge="1" parent="1" target="mjt6K8p7tiF1PK57Ym-b-5">
          <mxGeometry x="0.0013" relative="1" as="geometry">
            <mxPoint x="380" y="220" as="sourcePoint" />
            <mxPoint x="420" y="350" as="targetPoint" />
            <mxPoint as="offset" />
          </mxGeometry>
        </mxCell>
        <mxCell id="mjt6K8p7tiF1PK57Ym-b-16" value="&amp;lt;&amp;lt;include&amp;gt;&amp;gt;" style="html=1;verticalAlign=bottom;endArrow=open;dashed=1;endSize=8;elbow=vertical;rounded=0;entryX=0.207;entryY=0.129;entryDx=0;entryDy=0;entryPerimeter=0;" edge="1" parent="1" target="mjt6K8p7tiF1PK57Ym-b-3">
          <mxGeometry x="0.0013" relative="1" as="geometry">
            <mxPoint x="360" y="250" as="sourcePoint" />
            <mxPoint x="560" y="205" as="targetPoint" />
            <mxPoint as="offset" />
          </mxGeometry>
        </mxCell>
      </root>
    </mxGraphModel>
  </diagram>
</mxfile>
